<?xml version="1.0" encoding="UTF-8"?>
<svg id="Layer_2" data-name="Layer 2" xmlns="http://www.w3.org/2000/svg" viewBox="0 0 2228.96 2423.91">
  <defs>
    <style>
      .cls-1 {
        fill: #fff;
      }
    </style>
  </defs>
  <g id="Layer_1-2" data-name="Layer 1">
    <g>
      <path class="cls-1" d="M1281.27,505.35c51.21-17.64,153.78-31.42,189.56-48.96,3.93-1.93,10.74-10.95,8.39-12.83-200.06-36.99-408.39-39.76-606.45,10.87C324.15,594.68-195.22,1201.19,72.64,1779.8c63.72,137.65,160.19,262.22,273.9,361.02l-108.47-219.65c-173.44-423.71-14.72-857.39,339.22-1122.99,48.36-36.29,106.35-72.75,161.06-98.74-298.13,269.29-452.31,627.43-389.24,1033.75,51.63,332.61,338.11,654.14,683.04,689.11,49.95,5.06,106.75-3.7,157.54,0-37.02-30.74-93.99-39.82-139.29-60.93-792.85-369.37-532.75-1593.05,230.88-1856.02Z"/>
      <path class="cls-1" d="M1587.97,2070.27c-668.44-117.51-876.17-1014.4-359.74-1438.93l157.27-111.03c-721.78,218.17-927.16,1256.55-322.67,1726.24,46.26,35.95,216.36,148.32,267.45,150.68,35.78,1.66,140.56-36.91,178.91-51.54,13-4.96,42.49-11.7,46.61-25.65-440.44-97.72-750.31-494.12-740.72-946.83l20.91,119.67c69.2,326.96,325.01,616.13,632.46,739.76,34.26,13.78,137.32,51.78,168.62,49.23,59.78-4.85,228.46-158.2,276.42-205.07-109.83.98-215.95,12.73-325.51-6.53Z"/>
      <path class="cls-1" d="M1479.27,1309.25l175.23-302.78c5.76-11.7-1.92-18.79-6.19-28.25-15.45-34.24-82.42-113.59-109.71-146.43-23.79-28.61-168.82-188.28-191.3-190-139.08,83.86-249.45,234.97-298.22,390.11-32.85,104.51-48.44,183.22,14.22,280.17,139.12,4.02,277.41,18.75,415.97-2.82Z"/>
      <path class="cls-1" d="M1080.2,1589.45c53.85,119.36,143.79,229.44,251.6,302.9l274-191.91-127.97-308.77-386.18-1.54c-26.07,5.04-47.84,93.36-43.39,119.73,2.95,17.48,23.35,60.56,31.94,79.59Z"/>
      <path class="cls-1" d="M1402.74,609.79c64.05,41.96,124.49,90.66,174.51,149.16,25.34,29.64,121.37,186.9,131.81,192.03,28.75,14.13,54.81-3.54,81.07-4.2,73.36-1.85,144.11,5.06,217.11,8.49-5.1-57.84,23.04-143.75,6.73-198.74-8.73-29.41-123.15-109.11-154.34-126.89-64.05-36.5-201.86-93.44-274.01-93.02-25.99.15-183.19,58.69-182.88,73.16Z"/>
      <path class="cls-1" d="M1938.76,1740.08c-76.31,30.75-214.42-.97-280.34,21.55-47.21,16.13-131.88,115.61-183.91,140.51-3.44,5.41,3.82,71.27,6.16,75.19,14.37,24.1,205.93,56.48,241.71,53,44.45-4.32,231.26-101.09,240.91-142.82,2.68-11.59-18.12-142.77-24.53-147.44Z"/>
      <path class="cls-1" d="M2122.32,895.37l-46.91-68.04c3.54,38.66-23.02,133.08-15.62,164.05,3.49,14.62,42.13,62.19,52.81,84.32,22.35,46.32,40.47,93.59,52.24,143.86,6.02,25.74,13.32,113.46,20.24,123.07,8.25,11.45,31.85,2.82,43.57,5,3.93-157.85-27.91-315.12-106.32-452.25Z"/>
      <path class="cls-1" d="M2181.69,1432.79c-8.02,7.04-85.4,158.56-102.82,187.01-13.32,21.75-62.53,80.22-66.69,94.26-1.49,5.02,16.97,98.94,20.65,102.65,12.99,13.09,15.78-6.61,19.43-10.84,67.89-78.83,118.7-187.74,146.5-287.74,3.76-13.51,24.93-90.58,21.3-93.72-5.44-4.71-29.39.5-38.38,8.39Z"/>
      <path class="cls-1" d="M14.59,980.77l131.79-179.19c279.02-318.73,807.53-501.03,1223.68-423.63,49.43,9.19,152.35,32.56,186.27,69.3,14.87,16.1,10.94,33.16,24.97,38.8,60.79-124.43-38.86-146.99-134.32-176.62-45.05-13.98-198.54-35.61-217.39-46.67-18.16-10.65-19.96-33.54-35.6-49.64-88.75-91.32-356.88-29.51-476.59-25.19-112.31,4.05-301.29,4.49-352.92-116.34-10.1-23.65-6.47-59.83-26.28-71.6-57.75,134.22-76.69,314.87,85.01,379.45C223.87,526.51,82.31,742.89,14.59,980.77ZM1117.3,221.7c2.89,0,45.65,23.43,46.84,34.12h-123.48c-3.05,0-37.93-31.39-55.29-25.69l-.07-8.42h132Z"/>
      <path class="cls-1" d="M1678.67,1680.9c37.68,27.2,208.83-5.77,262.91-2.42,28.72-8.37,175.08-248.23,182.9-285.9,14.3-68.92-57.53-348.14-123.12-367.53-16.67-4.93-78.4-9.38-100.2-10.52-64.01-3.36-127.43,3.87-190.71,10.29-24.43,57.12-54.42,112.45-85,166.44-22.91,40.45-73.74,105.02-88.71,141.89-4.5,11.07-9.01,19.43-2.88,31.47,42.5,44.72,114.5,294.41,144.8,316.28ZM1828.12,1556.8c-34.28-65.77-55.66-141.06-84.91-209.22h187.35l-85.26,230.27c-12.14-.74-13.06-13.14-17.18-21.06ZM1879.55,1543.76c14.25-24.4,68.91-189.32,77.72-195.02,11.37-7.36,65.39,2.73,84-1.07l-161.71,196.09ZM2041.26,1330.44c-82.73,14.31-101.85-16.26-144.76-76.59,73.4-15.11,103.75,24.95,144.76,76.59ZM1930.56,1330.53h-178.83c56.59-110.49,117.49-99.85,178.83,0ZM1777.27,1253.85c-37.66,63.39-55.23,90.03-136.25,76.59,38.51-46.41,67.97-91.66,136.25-76.59ZM1722.18,1355.86c20.41,21.03,53.03,145.2,72.04,179.37l-76.35-81.24-76.81-106.36c22.9,2.87,64.98-8.39,81.11,8.23Z"/>
    </g>
  </g>
</svg>